<svg width="25" height="24" viewBox="0 0 25 24" fill="none" xmlns="http://www.w3.org/2000/svg">
<path fill-rule="evenodd" clip-rule="evenodd" d="M12.625 2C18.148 2 22.625 6.477 22.625 12C22.6285 14.3079 21.8304 16.5454 20.367 18.33L20.387 18.352L20.255 18.464C19.3172 19.5732 18.1486 20.4643 16.8307 21.0751C15.5129 21.6858 14.0775 22.0015 12.625 22C9.67501 22 7.02501 20.723 5.19501 18.693L4.99501 18.463L4.86301 18.353L4.88301 18.329C3.41977 16.5447 2.62163 14.3076 2.62501 12C2.62501 6.477 7.10201 2 12.625 2ZM12.625 17C10.765 17 9.08401 17.592 7.83201 18.406C9.21443 19.4433 10.8967 20.0027 12.625 20C14.3533 20.0027 16.0356 19.4433 17.418 18.406C15.9874 17.4893 14.3242 17.0014 12.625 17ZM12.625 4C11.1195 3.99996 9.6446 4.42471 8.36973 5.22545C7.09487 6.02619 6.07182 7.1704 5.41817 8.52657C4.76453 9.88274 4.50681 11.3958 4.67466 12.8919C4.84251 14.388 5.4291 15.8064 6.36701 16.984C7.98801 15.821 10.2 15 12.625 15C15.05 15 17.262 15.821 18.883 16.984C19.8209 15.8064 20.4075 14.388 20.5754 12.8919C20.7432 11.3958 20.4855 9.88274 19.8319 8.52657C19.1782 7.1704 18.1552 6.02619 16.8803 5.22545C15.6054 4.42471 14.1305 3.99996 12.625 4ZM12.625 6C13.6859 6 14.7033 6.42143 15.4534 7.17157C16.2036 7.92172 16.625 8.93913 16.625 10C16.625 11.0609 16.2036 12.0783 15.4534 12.8284C14.7033 13.5786 13.6859 14 12.625 14C11.5641 14 10.5467 13.5786 9.79658 12.8284C9.04644 12.0783 8.62501 11.0609 8.62501 10C8.62501 8.93913 9.04644 7.92172 9.79658 7.17157C10.5467 6.42143 11.5641 6 12.625 6ZM12.625 8C12.0946 8 11.5859 8.21071 11.2108 8.58579C10.8357 8.96086 10.625 9.46957 10.625 10C10.625 10.5304 10.8357 11.0391 11.2108 11.4142C11.5859 11.7893 12.0946 12 12.625 12C13.1554 12 13.6642 11.7893 14.0392 11.4142C14.4143 11.0391 14.625 10.5304 14.625 10C14.625 9.46957 14.4143 8.96086 14.0392 8.58579C13.6642 8.21071 13.1554 8 12.625 8Z" fill="#A0ABC0"/>
</svg>
