<svg width="25" height="24" viewBox="0 0 25 24" fill="none" xmlns="http://www.w3.org/2000/svg">
<path fill-rule="evenodd" clip-rule="evenodd" d="M12.875 2C15.2619 2 17.5511 2.94821 19.239 4.63604C20.9268 6.32387 21.875 8.61305 21.875 11C21.875 14.074 20.199 16.59 18.433 18.395C17.5505 19.2869 16.5878 20.0956 15.557 20.811L15.131 21.101L14.931 21.234L14.554 21.474L14.218 21.679L13.802 21.921C13.5195 22.0818 13.2 22.1663 12.875 22.1663C12.55 22.1663 12.2305 22.0818 11.948 21.921L11.532 21.679L11.012 21.359L10.82 21.234L10.41 20.961C9.29798 20.2083 8.26207 19.3489 7.317 18.395C5.551 16.589 3.875 14.074 3.875 11C3.875 8.61305 4.82321 6.32387 6.51104 4.63604C8.19887 2.94821 10.4881 2 12.875 2ZM12.875 4C11.0185 4 9.23801 4.7375 7.92525 6.05025C6.6125 7.36301 5.875 9.14348 5.875 11C5.875 13.322 7.147 15.36 8.746 16.996C9.43362 17.6919 10.1767 18.3307 10.968 18.906L11.426 19.232C11.574 19.335 11.716 19.431 11.853 19.52L12.243 19.77L12.586 19.979L12.875 20.148L13.33 19.879L13.697 19.649C13.892 19.525 14.102 19.386 14.324 19.232L14.782 18.906C15.5733 18.3307 16.3164 17.6919 17.004 16.996C18.603 15.361 19.875 13.322 19.875 11C19.875 9.14348 19.1375 7.36301 17.8247 6.05025C16.512 4.7375 14.7315 4 12.875 4ZM12.875 7C13.9359 7 14.9533 7.42143 15.7034 8.17157C16.4536 8.92172 16.875 9.93913 16.875 11C16.875 12.0609 16.4536 13.0783 15.7034 13.8284C14.9533 14.5786 13.9359 15 12.875 15C11.8141 15 10.7967 14.5786 10.0466 13.8284C9.29643 13.0783 8.875 12.0609 8.875 11C8.875 9.93913 9.29643 8.92172 10.0466 8.17157C10.7967 7.42143 11.8141 7 12.875 7ZM12.875 9C12.3446 9 11.8359 9.21071 11.4608 9.58579C11.0857 9.96086 10.875 10.4696 10.875 11C10.875 11.5304 11.0857 12.0391 11.4608 12.4142C11.8359 12.7893 12.3446 13 12.875 13C13.4054 13 13.9141 12.7893 14.2892 12.4142C14.6643 12.0391 14.875 11.5304 14.875 11C14.875 10.4696 14.6643 9.96086 14.2892 9.58579C13.9141 9.21071 13.4054 9 12.875 9Z" fill="#A0ABC0"/>
</svg>
