<svg width="25" height="24" viewBox="0 0 25 24" fill="none" xmlns="http://www.w3.org/2000/svg">
<path d="M17.125 3C18.4511 3 19.7229 3.52678 20.6605 4.46447C21.5982 5.40215 22.125 6.67392 22.125 8V16C22.125 17.3261 21.5982 18.5979 20.6605 19.5355C19.7229 20.4732 18.4511 21 17.125 21H3.125C2.85978 21 2.60543 20.8946 2.41789 20.7071C2.23036 20.5196 2.125 20.2652 2.125 20V8C2.125 6.67392 2.65178 5.40215 3.58947 4.46447C4.52715 3.52678 5.79892 3 7.125 3H17.125ZM17.125 5H7.125C6.32935 5 5.56629 5.31607 5.00368 5.87868C4.44107 6.44129 4.125 7.20435 4.125 8V19H17.125C17.9206 19 18.6837 18.6839 19.2463 18.1213C19.8089 17.5587 20.125 16.7956 20.125 16V8C20.125 7.20435 19.8089 6.44129 19.2463 5.87868C18.6837 5.31607 17.9206 5 17.125 5ZM9.125 10C9.39022 10 9.64457 10.1054 9.83211 10.2929C10.0196 10.4804 10.125 10.7348 10.125 11V13C10.125 13.2652 10.0196 13.5196 9.83211 13.7071C9.64457 13.8946 9.39022 14 9.125 14C8.85978 14 8.60543 13.8946 8.41789 13.7071C8.23036 13.5196 8.125 13.2652 8.125 13V11C8.125 10.7348 8.23036 10.4804 8.41789 10.2929C8.60543 10.1054 8.85978 10 9.125 10ZM15.125 10C15.3699 10 15.6063 10.09 15.7894 10.2527C15.9724 10.4155 16.0893 10.6397 16.118 10.883L16.125 11V13C16.1247 13.2549 16.0271 13.5 15.8522 13.6854C15.6772 13.8707 15.438 13.9822 15.1836 13.9972C14.9292 14.0121 14.6786 13.9293 14.4832 13.7657C14.2877 13.6021 14.1621 13.3701 14.132 13.117L14.125 13V11C14.125 10.7348 14.2304 10.4804 14.4179 10.2929C14.6054 10.1054 14.8598 10 15.125 10Z" fill="#A0ABC0"/>
</svg>
