<svg width="25" height="24" viewBox="0 0 25 24" fill="none" xmlns="http://www.w3.org/2000/svg">
<g clip-path="url(#clip0_2156_441)">
<path fill-rule="evenodd" clip-rule="evenodd" d="M13.603 2.68799C13.2519 2.41488 12.8198 2.2666 12.375 2.2666C11.9302 2.2666 11.4981 2.41488 11.147 2.68799L2.763 9.20799C2.011 9.79499 2.425 11 3.378 11H4.375V19C4.375 19.5304 4.58571 20.0391 4.96078 20.4142C5.33586 20.7893 5.84456 21 6.375 21H11.375V14C11.375 13.7348 11.4804 13.4804 11.6679 13.2929C11.8554 13.1053 12.1098 13 12.375 13C12.6402 13 12.8946 13.1053 13.0821 13.2929C13.2696 13.4804 13.375 13.7348 13.375 14V21H18.375C18.9054 21 19.4141 20.7893 19.7892 20.4142C20.1643 20.0391 20.375 19.5304 20.375 19V11H21.372C22.324 11 22.74 9.79499 21.987 9.20899L13.603 2.68799Z" fill="#A0ABC0"/>
</g>
<defs>
<clipPath id="clip0_2156_441">
<rect width="24" height="24" fill="white" transform="translate(0.375)"/>
</clipPath>
</defs>
</svg>
